<?xml version="1.0" encoding="UTF-8" standalone="no"?>
<!-- Created with Inkscape (http://www.inkscape.org/) -->

<svg
   xmlns:dc="http://purl.org/dc/elements/1.1/"
   xmlns:cc="http://creativecommons.org/ns#"
   xmlns:rdf="http://www.w3.org/1999/02/22-rdf-syntax-ns#"
   xmlns:svg="http://www.w3.org/2000/svg"
   xmlns="http://www.w3.org/2000/svg"
   xmlns:sodipodi="http://sodipodi.sourceforge.net/DTD/sodipodi-0.dtd"
   xmlns:inkscape="http://www.inkscape.org/namespaces/inkscape"
   id="svg3355"
   version="1.1"
   inkscape:version="0.91 r13725"
   xml:space="preserve"
   width="1600"
   height="800"
   viewBox="0 0 1600 800"
   sodipodi:docname="compile-to-web-inkscape.svg"><metadata
     id="metadata3361"><rdf:RDF><cc:Work
         rdf:about=""><dc:format>image/svg+xml</dc:format><dc:type
           rdf:resource="http://purl.org/dc/dcmitype/StillImage" /><dc:title></dc:title></cc:Work></rdf:RDF></metadata><defs
     id="defs3359"><clipPath
       clipPathUnits="userSpaceOnUse"
       id="clipPath3377"><path
         d="M 0,750 1000,750 1000,0 0,0 0,750 Z"
         id="path3379"
         inkscape:connector-curvature="0" /></clipPath><clipPath
       clipPathUnits="userSpaceOnUse"
       id="clipPath3405"><path
         d="M 0,750 1000,750 1000,0 0,0 0,750 Z"
         id="path3407"
         inkscape:connector-curvature="0" /></clipPath><clipPath
       clipPathUnits="userSpaceOnUse"
       id="clipPath3429"><path
         d="M 0,750 1000,750 1000,0 0,0 0,750 Z"
         id="path3431"
         inkscape:connector-curvature="0" /></clipPath><clipPath
       clipPathUnits="userSpaceOnUse"
       id="clipPath3449"><path
         d="M 0,750 1000,750 1000,0 0,0 0,750 Z"
         id="path3451"
         inkscape:connector-curvature="0" /></clipPath></defs><sodipodi:namedview
     pagecolor="#ffffff"
     bordercolor="#666666"
     borderopacity="1"
     objecttolerance="10"
     gridtolerance="10"
     guidetolerance="10"
     inkscape:pageopacity="0"
     inkscape:pageshadow="2"
     inkscape:window-width="1920"
     inkscape:window-height="1028"
     id="namedview3357"
     showgrid="false"
     inkscape:zoom="0.46293334"
     inkscape:cx="154.31476"
     inkscape:cy="614.93673"
     inkscape:window-x="0"
     inkscape:window-y="23"
     inkscape:window-maximized="1"
     inkscape:current-layer="g3363" /><g
     id="g3363"
     inkscape:groupmode="layer"
     inkscape:label="web-assembly-logo"
     transform="matrix(1.25,0,0,-1.25,0,800)"><g
       id="g3351"
       transform="translate(-17.724099,22.465438)"><text
         y="-50.351662"
         x="813.75336"
         id="text3437"
         style="font-variant:normal;font-weight:600;font-stretch:normal;font-size:102.18350983px;font-family:'Open Sans Semibold';-inkscape-font-specification:OpenSans-Semibold;writing-mode:lr-tb;fill:#393939;fill-opacity:1;fill-rule:nonzero;stroke:none"
         transform="scale(1,-1)"><tspan
           y="-50.351662"
           x="813.75336"
           id="tspan3439"
           sodipodi:role="line">Web</tspan></text>
<text
         y="-52.817753"
         x="249.08003"
         id="text3441"
         style="font-variant:normal;font-weight:normal;font-stretch:normal;font-size:102.18350983px;font-family:'Open Sans';-inkscape-font-specification:OpenSans;writing-mode:lr-tb;fill:#393939;fill-opacity:1;fill-rule:nonzero;stroke:none"
         transform="scale(1,-1)"><tspan
           y="-52.817753"
           x="249.08003"
           id="tspan3443"
           sodipodi:role="line">compile to</tspan></text>
</g><g
       id="g3445"
       transform="matrix(2.8542243,0,0,2.8542243,-73.838929,-1310.2481)"><g
         id="g3447"
         clip-path="url(#clipPath3449)"><g
           id="g3453"
           transform="translate(286.9321,553.2168)"><path
             d="m 0,0 -2.429,8.484 -12.815,0 -1.868,-8.484 -7.171,0 9.227,38.101 11.247,0 L 7.398,0 0,0 Z m -39.265,0 -5.241,25.934 -0.091,0 L -50.249,0 l -7.217,0 -8.21,38.101 7.126,0 4.879,-25.934 0.09,0 5.879,25.934 6.673,0 5.283,-26.255 0.091,0 5.565,26.255 6.99,0 L -32.184,0 -39.265,0 Z m 14.745,96.101 c 0.009,-0.193 0.029,-0.384 0.029,-0.579 0,-6.816 -5.526,-12.342 -12.342,-12.342 -6.816,0 -12.342,5.526 -12.342,12.342 0,0.195 0.02,0.386 0.029,0.579 l -41.496,0 0,-107.618 107.618,0 0,107.618 -41.496,0 z"
             style="fill:#654ff0;fill-opacity:1;fill-rule:nonzero;stroke:none"
             id="path3455"
             inkscape:connector-curvature="0" /></g><g
           id="g3457"
           transform="translate(276.1631,581.9258)"><path
             d="m 0,0 -3.11,-13.981 9.682,0 L 2.997,0 0,0 Z"
             style="fill:#654ff0;fill-opacity:1;fill-rule:nonzero;stroke:none"
             id="path3459"
             inkscape:connector-curvature="0" /></g></g></g></g></svg>